{
	"asset":{
		"generator":"Khronos glTF Blender I/O v5.0.21",
		"version":"2.0"
	},
	"scene":0,
	"scenes":[
		{
			"name":"Scene",
			"nodes":[
				12
			]
		}
	],
	"nodes":[
		{
			"mesh":0,
			"name":"BookShelf_Bookshelf_0"
		},
		{
			"mesh":1,
			"name":"LeftDoor_BookShelf_Bookshelf_0",
			"translation":[
				0,
				6.3419629441341385e-06,
				-2.312526703462936e-06
			]
		},
		{
			"children":[
				1
			],
			"name":"LeftDoor_BookShelf",
			"rotation":[
				0.5000002980232239,
				-0.49999967217445374,
				0.5000001192092896,
				0.4999999403953552
			],
			"translation":[
				-87.5589370727539,
				67.05896759033203,
				35.02788162231445
			]
		},
		{
			"mesh":2,
			"name":"RightDoor_BookShelf_Bookshelf_0",
			"rotation":[
				0,
				0,
				0.2753344178199768,
				0.9613485336303711
			],
			"translation":[
				-6.551407750521321e-06,
				7.45401848689653e-06,
				4.280433131498285e-06
			]
		},
		{
			"children":[
				3
			],
			"name":"RightDoor_BookShelf",
			"rotation":[
				0.6180595755577087,
				-0.3435150980949402,
				0.3435152769088745,
				0.6180590391159058
			],
			"translation":[
				87.46575927734375,
				67.05894470214844,
				35.02750015258789
			]
		},
		{
			"children":[
				0,
				2,
				4
			],
			"name":"BookShelf"
		},
		{
			"mesh":3,
			"name":"SmallCabinet1_SmallCabinet1_0",
			"translation":[
				0.009629298932850361,
				117.70512390136719,
				-0.03754325583577156
			]
		},
		{
			"children":[
				6
			],
			"name":"SmallCabinet1",
			"rotation":[
				0.7072195410728455,
				-2.8876500437036157e-05,
				2.8930477128596976e-05,
				0.7069940567016602
			],
			"translation":[
				-318.318115234375,
				0,
				-117.50618743896484
			]
		},
		{
			"mesh":4,
			"name":"SmallCabinet2_SmallCabinet2_0",
			"translation":[
				0,
				0,
				117.7268295288086
			]
		},
		{
			"children":[
				8
			],
			"name":"SmallCabinet2",
			"translation":[
				329.5995788574219,
				0,
				-117.50618743896484
			]
		},
		{
			"children":[
				5,
				7,
				9
			],
			"name":"RootNode"
		},
		{
			"children":[
				10
			],
			"name":"126cf2331fb54845ae0f419fb9c54e01.fbx",
			"rotation":[
				0.70710688829422,
				0,
				0,
				0.7071066498756409
			],
			"scale":[
				0.009999999776482582,
				0.010000000707805157,
				0.010000000707805157
			]
		},
		{
			"children":[
				11
			],
			"name":"Sketchfab_model",
			"rotation":[
				-0.70710688829422,
				0,
				0,
				0.7071066498756409
			]
		}
	],
	"materials":[
		{
			"doubleSided":true,
			"name":"Bookshelf",
			"normalTexture":{
				"index":0
			},
			"pbrMetallicRoughness":{
				"baseColorTexture":{
					"index":1
				},
				"metallicRoughnessTexture":{
					"index":2
				}
			}
		},
		{
			"doubleSided":true,
			"name":"SmallCabinet1",
			"normalTexture":{
				"index":3
			},
			"pbrMetallicRoughness":{
				"baseColorTexture":{
					"index":4
				},
				"metallicRoughnessTexture":{
					"index":5
				}
			}
		},
		{
			"doubleSided":true,
			"name":"SmallCabinet2",
			"normalTexture":{
				"index":6
			},
			"pbrMetallicRoughness":{
				"baseColorTexture":{
					"index":7
				},
				"metallicRoughnessTexture":{
					"index":8
				}
			}
		}
	],
	"meshes":[
		{
			"name":"BookShelf_Bookshelf_0",
			"primitives":[
				{
					"attributes":{
						"POSITION":0,
						"NORMAL":1,
						"TEXCOORD_0":2,
						"TEXCOORD_1":3,
						"TEXCOORD_2":4
					},
					"indices":5,
					"material":0
				}
			]
		},
		{
			"name":"LeftDoor_BookShelf_Bookshelf_0",
			"primitives":[
				{
					"attributes":{
						"POSITION":6,
						"NORMAL":7,
						"TEXCOORD_0":8,
						"TEXCOORD_1":9,
						"TEXCOORD_2":10
					},
					"indices":11,
					"material":0
				}
			]
		},
		{
			"name":"RightDoor_BookShelf_Bookshelf_0",
			"primitives":[
				{
					"attributes":{
						"POSITION":12,
						"NORMAL":13,
						"TEXCOORD_0":14,
						"TEXCOORD_1":15,
						"TEXCOORD_2":16
					},
					"indices":17,
					"material":0
				}
			]
		},
		{
			"name":"SmallCabinet1_SmallCabinet1_0",
			"primitives":[
				{
					"attributes":{
						"POSITION":18,
						"NORMAL":19,
						"TEXCOORD_0":20,
						"TEXCOORD_1":21,
						"TEXCOORD_2":22
					},
					"indices":23,
					"material":1
				}
			]
		},
		{
			"name":"SmallCabinet2_SmallCabinet2_0",
			"primitives":[
				{
					"attributes":{
						"POSITION":24,
						"NORMAL":25,
						"TEXCOORD_0":26,
						"TEXCOORD_1":27,
						"TEXCOORD_2":28
					},
					"indices":29,
					"material":2
				}
			]
		}
	],
	"textures":[
		{
			"sampler":0,
			"source":0
		},
		{
			"sampler":0,
			"source":1
		},
		{
			"sampler":0,
			"source":2
		},
		{
			"sampler":0,
			"source":3
		},
		{
			"sampler":0,
			"source":4
		},
		{
			"sampler":0,
			"source":5
		},
		{
			"sampler":0,
			"source":6
		},
		{
			"sampler":0,
			"source":7
		},
		{
			"sampler":0,
			"source":8
		}
	],
	"images":[
		{
			"mimeType":"image/png",
			"name":"Bookshelf_normal",
			"uri":"Bookshelf_normal.png"
		},
		{
			"mimeType":"image/png",
			"name":"Bookshelf_baseColor",
			"uri":"Bookshelf_baseColor.png"
		},
		{
			"mimeType":"image/png",
			"name":"Bookshelf_metallicRoughness",
			"uri":"Bookshelf_metallicRoughness.png"
		},
		{
			"mimeType":"image/png",
			"name":"SmallCabinet1_normal",
			"uri":"SmallCabinet1_normal.png"
		},
		{
			"mimeType":"image/png",
			"name":"SmallCabinet1_baseColor",
			"uri":"SmallCabinet1_baseColor.png"
		},
		{
			"mimeType":"image/png",
			"name":"SmallCabinet1_metallicRoughness",
			"uri":"SmallCabinet1_metallicRoughness.png"
		},
		{
			"mimeType":"image/png",
			"name":"SmallCabinet2_normal",
			"uri":"SmallCabinet2_normal.png"
		},
		{
			"mimeType":"image/png",
			"name":"SmallCabinet2_baseColor",
			"uri":"SmallCabinet2_baseColor.png"
		},
		{
			"mimeType":"image/png",
			"name":"SmallCabinet2_metallicRoughness",
			"uri":"SmallCabinet2_metallicRoughness.png"
		}
	],
	"accessors":[
		{
			"bufferView":0,
			"componentType":5126,
			"count":3902,
			"max":[
				115.3777847290039,
				332.43505859375,
				44.31761169433594
			],
			"min":[
				-115.0875473022461,
				0.0804901123046875,
				-43.765220642089844
			],
			"type":"VEC3"
		},
		{
			"bufferView":1,
			"componentType":5126,
			"count":3902,
			"type":"VEC3"
		},
		{
			"bufferView":2,
			"componentType":5126,
			"count":3902,
			"type":"VEC2"
		},
		{
			"bufferView":3,
			"componentType":5126,
			"count":3902,
			"type":"VEC2"
		},
		{
			"bufferView":4,
			"componentType":5126,
			"count":3902,
			"type":"VEC2"
		},
		{
			"bufferView":5,
			"componentType":5123,
			"count":11448,
			"type":"SCALAR"
		},
		{
			"bufferView":6,
			"componentType":5126,
			"count":183,
			"max":[
				7.438981533050537,
				1.7881393432617188e-05,
				41.45759201049805
			],
			"min":[
				-1.861986517906189,
				-84.57746887207031,
				-41.45756912231445
			],
			"type":"VEC3"
		},
		{
			"bufferView":7,
			"componentType":5126,
			"count":183,
			"type":"VEC3"
		},
		{
			"bufferView":8,
			"componentType":5126,
			"count":183,
			"type":"VEC2"
		},
		{
			"bufferView":9,
			"componentType":5126,
			"count":183,
			"type":"VEC2"
		},
		{
			"bufferView":10,
			"componentType":5126,
			"count":183,
			"type":"VEC2"
		},
		{
			"bufferView":11,
			"componentType":5123,
			"count":552,
			"type":"SCALAR"
		},
		{
			"bufferView":12,
			"componentType":5126,
			"count":183,
			"max":[
				7.439261436462402,
				84.5774917602539,
				41.457550048828125
			],
			"min":[
				-1.861855387687683,
				3.5762786865234375e-05,
				-41.45759963989258
			],
			"type":"VEC3"
		},
		{
			"bufferView":13,
			"componentType":5126,
			"count":183,
			"type":"VEC3"
		},
		{
			"bufferView":14,
			"componentType":5126,
			"count":183,
			"type":"VEC2"
		},
		{
			"bufferView":15,
			"componentType":5126,
			"count":183,
			"type":"VEC2"
		},
		{
			"bufferView":16,
			"componentType":5126,
			"count":183,
			"type":"VEC2"
		},
		{
			"bufferView":17,
			"componentType":5123,
			"count":552,
			"type":"SCALAR"
		},
		{
			"bufferView":18,
			"componentType":5126,
			"count":2145,
			"max":[
				98.01287078857422,
				52.161067962646484,
				0.014841556549072266
			],
			"min":[
				-98.10691833496094,
				-54.07756423950195,
				-119.37923431396484
			],
			"type":"VEC3"
		},
		{
			"bufferView":19,
			"componentType":5126,
			"count":2145,
			"type":"VEC3"
		},
		{
			"bufferView":20,
			"componentType":5126,
			"count":2145,
			"type":"VEC2"
		},
		{
			"bufferView":21,
			"componentType":5126,
			"count":2145,
			"type":"VEC2"
		},
		{
			"bufferView":22,
			"componentType":5126,
			"count":2145,
			"type":"VEC2"
		},
		{
			"bufferView":23,
			"componentType":5123,
			"count":5811,
			"type":"SCALAR"
		},
		{
			"bufferView":24,
			"componentType":5126,
			"count":2323,
			"max":[
				104.373291015625,
				96.29874420166016,
				56.27205276489258
			],
			"min":[
				-104.373291015625,
				0.029486417770385742,
				-53.736907958984375
			],
			"type":"VEC3"
		},
		{
			"bufferView":25,
			"componentType":5126,
			"count":2323,
			"type":"VEC3"
		},
		{
			"bufferView":26,
			"componentType":5126,
			"count":2323,
			"type":"VEC2"
		},
		{
			"bufferView":27,
			"componentType":5126,
			"count":2323,
			"type":"VEC2"
		},
		{
			"bufferView":28,
			"componentType":5126,
			"count":2323,
			"type":"VEC2"
		},
		{
			"bufferView":29,
			"componentType":5123,
			"count":5988,
			"type":"SCALAR"
		}
	],
	"bufferViews":[
		{
			"buffer":0,
			"byteLength":46824,
			"byteOffset":0,
			"target":34962
		},
		{
			"buffer":0,
			"byteLength":46824,
			"byteOffset":46824,
			"target":34962
		},
		{
			"buffer":0,
			"byteLength":31216,
			"byteOffset":93648,
			"target":34962
		},
		{
			"buffer":0,
			"byteLength":31216,
			"byteOffset":124864,
			"target":34962
		},
		{
			"buffer":0,
			"byteLength":31216,
			"byteOffset":156080,
			"target":34962
		},
		{
			"buffer":0,
			"byteLength":22896,
			"byteOffset":187296,
			"target":34963
		},
		{
			"buffer":0,
			"byteLength":2196,
			"byteOffset":210192,
			"target":34962
		},
		{
			"buffer":0,
			"byteLength":2196,
			"byteOffset":212388,
			"target":34962
		},
		{
			"buffer":0,
			"byteLength":1464,
			"byteOffset":214584,
			"target":34962
		},
		{
			"buffer":0,
			"byteLength":1464,
			"byteOffset":216048,
			"target":34962
		},
		{
			"buffer":0,
			"byteLength":1464,
			"byteOffset":217512,
			"target":34962
		},
		{
			"buffer":0,
			"byteLength":1104,
			"byteOffset":218976,
			"target":34963
		},
		{
			"buffer":0,
			"byteLength":2196,
			"byteOffset":220080,
			"target":34962
		},
		{
			"buffer":0,
			"byteLength":2196,
			"byteOffset":222276,
			"target":34962
		},
		{
			"buffer":0,
			"byteLength":1464,
			"byteOffset":224472,
			"target":34962
		},
		{
			"buffer":0,
			"byteLength":1464,
			"byteOffset":225936,
			"target":34962
		},
		{
			"buffer":0,
			"byteLength":1464,
			"byteOffset":227400,
			"target":34962
		},
		{
			"buffer":0,
			"byteLength":1104,
			"byteOffset":228864,
			"target":34963
		},
		{
			"buffer":0,
			"byteLength":25740,
			"byteOffset":229968,
			"target":34962
		},
		{
			"buffer":0,
			"byteLength":25740,
			"byteOffset":255708,
			"target":34962
		},
		{
			"buffer":0,
			"byteLength":17160,
			"byteOffset":281448,
			"target":34962
		},
		{
			"buffer":0,
			"byteLength":17160,
			"byteOffset":298608,
			"target":34962
		},
		{
			"buffer":0,
			"byteLength":17160,
			"byteOffset":315768,
			"target":34962
		},
		{
			"buffer":0,
			"byteLength":11622,
			"byteOffset":332928,
			"target":34963
		},
		{
			"buffer":0,
			"byteLength":27876,
			"byteOffset":344552,
			"target":34962
		},
		{
			"buffer":0,
			"byteLength":27876,
			"byteOffset":372428,
			"target":34962
		},
		{
			"buffer":0,
			"byteLength":18584,
			"byteOffset":400304,
			"target":34962
		},
		{
			"buffer":0,
			"byteLength":18584,
			"byteOffset":418888,
			"target":34962
		},
		{
			"buffer":0,
			"byteLength":18584,
			"byteOffset":437472,
			"target":34962
		},
		{
			"buffer":0,
			"byteLength":11976,
			"byteOffset":456056,
			"target":34963
		}
	],
	"samplers":[
		{
			"magFilter":9729,
			"minFilter":9987
		}
	],
	"buffers":[
		{
			"byteLength":468032,
			"uri":"bookshelves.bin"
		}
	]
}
